<svg width="303" height="42" viewBox="0 0 303 42" fill="none" xmlns="http://www.w3.org/2000/svg">
<path d="M9.7459 15.4294L24.3647 32.0548H17.7719L0 11.4164H30.0976L26.5146 15.4294H15.7654H9.7459Z" fill="#0099CC"/>
<path d="M24.508 25.4619L15.6221 15.4294H9.74585L24.3647 32.0547L43.8565 10.4131L40.8467 7.1167L24.508 25.4619Z" fill="#999999"/>
<path d="M139.878 32.8227L132.476 1.29231H133.488L140.347 30.9477L140.593 31.9839H141.185L141.457 30.9477L148.636 2.22984H150.462L157.691 30.9723L157.937 31.9839H158.53L158.776 30.9723L165.635 1.29231H166.622L159.22 32.8227H157.247L151.794 11.2103L149.746 3.01933H149.352L147.304 11.2103L141.901 32.8227H139.878Z" fill="black"/>
<path d="M171.879 17.6003L171.411 17.0082L171.682 16.7861C172.225 14.2532 173.286 12.2465 174.865 10.7662C176.444 9.26949 178.384 8.52111 180.687 8.52111C181.378 8.52111 181.986 8.57868 182.513 8.69382C183.056 8.80895 183.508 8.94876 183.87 9.11324L183.944 10.0014C183.516 9.82049 183.023 9.67246 182.463 9.55733C181.904 9.44219 181.287 9.38462 180.613 9.38462C178.59 9.38462 176.797 10.0754 175.235 11.457C173.689 12.8222 172.57 14.87 171.879 17.6003ZM171.114 32.8227V8.86652H172.027L171.904 16.2927L172.027 16.4161V32.8227H171.114Z" fill="black"/>
<path d="M202.875 32.8227L202.973 26.5068L202.899 26.3341V18.4145V16.3174C202.899 14.0147 202.315 12.263 201.148 11.0623C199.996 9.84516 198.212 9.23659 195.794 9.23659C194.001 9.23659 192.397 9.53265 190.983 10.1248C189.568 10.7004 188.376 11.3584 187.405 12.0985L187.529 11.0623C188.039 10.6676 188.68 10.2646 189.453 9.85339C190.243 9.44219 191.164 9.09679 192.216 8.81718C193.286 8.53756 194.478 8.39776 195.794 8.39776C197.159 8.39776 198.343 8.57868 199.347 8.94053C200.35 9.28594 201.181 9.79582 201.838 10.4702C202.513 11.1445 203.006 11.9751 203.319 12.962C203.648 13.9324 203.812 15.0427 203.812 16.2927V32.8227H202.875ZM194.141 33.2915C191.756 33.2915 189.914 32.7405 188.614 31.6385C187.331 30.52 186.69 28.8917 186.69 26.7535V26.186C186.69 24.2781 187.282 22.806 188.466 21.7698C189.651 20.7171 191.633 19.9852 194.412 19.574L203.343 18.2418L203.368 19.0806L194.585 20.3635C192.118 20.7254 190.333 21.3504 189.231 22.2386C188.146 23.1268 187.603 24.4261 187.603 26.1367V26.7041C187.603 28.5956 188.17 30.0348 189.305 31.0217C190.457 31.9921 192.11 32.4773 194.264 32.4773C195.975 32.4773 197.439 32.1484 198.656 31.4904C199.889 30.8161 200.876 29.9115 201.616 28.7766C202.357 27.6252 202.834 26.3341 203.047 24.9031L203.516 25.816H203.22C203.088 27.1153 202.661 28.3407 201.937 29.492C201.213 30.6269 200.202 31.548 198.902 32.2553C197.603 32.9461 196.016 33.2915 194.141 33.2915Z" fill="black"/>
<path d="M220.725 33.2915C219.08 33.2915 217.6 32.9543 216.284 32.2799C214.984 31.6056 213.948 30.6598 213.175 29.4427C212.402 28.2256 212.007 26.7946 211.991 25.1498H211.695L212.238 24.3357C212.336 26.1285 212.78 27.6334 213.57 28.8506C214.376 30.0513 215.404 30.9559 216.654 31.5645C217.92 32.173 219.294 32.4773 220.774 32.4773C223.406 32.4773 225.429 31.6796 226.843 30.0842C228.258 28.4887 228.965 26.1778 228.965 23.1514V18.5872C228.965 15.5443 228.258 13.2252 226.843 11.6297C225.445 10.0179 223.397 9.21192 220.7 9.21192C219.187 9.21192 217.83 9.53266 216.629 10.1741C215.428 10.8156 214.442 11.712 213.668 12.8633C212.895 14.0147 212.386 15.3552 212.139 16.8848L211.695 15.972H211.966C212.131 14.5739 212.583 13.3074 213.323 12.1725C214.08 11.0212 215.091 10.1083 216.358 9.43397C217.624 8.74316 219.104 8.39776 220.799 8.39776C223.743 8.39776 225.988 9.27771 227.534 11.0376C229.097 12.7811 229.878 15.2976 229.878 18.5872V23.1514C229.878 26.441 229.088 28.9575 227.509 30.701C225.947 32.428 223.685 33.2915 220.725 33.2915ZM211.399 41.3098V8.86652H212.312L212.213 15.2565L212.238 15.7252V26.0133L212.188 26.3834L212.312 32.8227V41.3098H211.399Z" fill="black"/>
<path d="M246.119 33.2915C244.474 33.2915 242.994 32.9543 241.678 32.2799C240.379 31.6056 239.343 30.6598 238.57 29.4427C237.796 28.2256 237.402 26.7946 237.385 25.1498H237.089L237.632 24.3357C237.731 26.1285 238.175 27.6334 238.964 28.8506C239.77 30.0513 240.798 30.9559 242.048 31.5645C243.315 32.173 244.688 32.4773 246.168 32.4773C248.8 32.4773 250.823 31.6796 252.238 30.0842C253.652 28.4887 254.359 26.1778 254.359 23.1514V18.5872C254.359 15.5443 253.652 13.2252 252.238 11.6297C250.84 10.0179 248.792 9.21192 246.094 9.21192C244.581 9.21192 243.224 9.53266 242.024 10.1741C240.823 10.8156 239.836 11.712 239.063 12.8633C238.29 14.0147 237.78 15.3552 237.533 16.8848L237.089 15.972H237.361C237.525 14.5739 237.977 13.3074 238.718 12.1725C239.474 11.0212 240.486 10.1083 241.752 9.43397C243.019 8.74316 244.499 8.39776 246.193 8.39776C249.137 8.39776 251.382 9.27771 252.928 11.0376C254.491 12.7811 255.272 15.2976 255.272 18.5872V23.1514C255.272 26.441 254.483 28.9575 252.904 30.701C251.341 32.428 249.08 33.2915 246.119 33.2915ZM236.793 41.3098V8.86652H237.706L237.607 15.2565L237.632 15.7252V26.0133L237.583 26.3834L237.706 32.8227V41.3098H236.793Z" fill="black"/>
<path d="M270.601 33.2915C267.591 33.2915 265.255 32.4773 263.594 30.849C261.933 29.2042 261.102 26.8933 261.102 23.9162V18.3898C261.102 15.1002 261.867 12.6002 263.397 10.8896C264.943 9.16258 267.18 8.29907 270.107 8.29907C272.032 8.29907 273.66 8.68559 274.992 9.45864C276.341 10.2317 277.361 11.3584 278.052 12.8387C278.742 14.3025 279.088 16.0871 279.088 18.1924V19.0312C279.088 19.3931 279.08 19.755 279.063 20.1168C279.063 20.4787 279.047 20.8816 279.014 21.3257H278.175C278.175 20.75 278.175 20.199 278.175 19.6727C278.175 19.1464 278.175 18.6612 278.175 18.2171C278.175 16.2598 277.862 14.6068 277.237 13.2581C276.629 11.9094 275.724 10.8814 274.523 10.1741C273.323 9.46686 271.851 9.11324 270.107 9.11324C267.476 9.11324 265.469 9.90273 264.087 11.4817C262.706 13.0607 262.015 15.3634 262.015 18.3898V20.8076V21.005V23.8916C262.015 25.2403 262.204 26.441 262.582 27.4936C262.977 28.5463 263.545 29.4427 264.285 30.1828C265.025 30.9065 265.93 31.4658 266.999 31.8605C268.068 32.2388 269.277 32.428 270.625 32.428C272.188 32.428 273.627 32.1895 274.943 31.7125C276.259 31.2191 277.492 30.52 278.644 29.6154L278.52 30.701C277.55 31.4904 276.39 32.1237 275.042 32.6007C273.693 33.0612 272.213 33.2915 270.601 33.2915ZM261.522 21.3257V20.5116H278.693V21.3257H261.522Z" fill="black"/>
<path d="M293.6 33.2915C290.672 33.2915 288.427 32.4197 286.865 30.6763C285.302 28.9164 284.521 26.3916 284.521 23.1021V18.5378C284.521 15.2483 285.302 12.74 286.865 11.013C288.444 9.26949 290.714 8.39776 293.674 8.39776C295.319 8.39776 296.799 8.73494 298.115 9.4093C299.431 10.0837 300.467 11.0294 301.224 12.2465C301.997 13.4637 302.391 14.8946 302.408 16.5394H302.704L302.161 17.3536C302.062 15.5443 301.61 14.0393 300.804 12.8387C300.015 11.638 298.995 10.7333 297.745 10.1248C296.495 9.51621 295.122 9.21192 293.625 9.21192C290.993 9.21192 288.97 10.0096 287.556 11.6051C286.141 13.1841 285.434 15.495 285.434 18.5378V23.1021C285.434 26.1449 286.141 28.4723 287.556 30.0842C288.97 31.6796 291.018 32.4773 293.699 32.4773C295.228 32.4773 296.594 32.1566 297.794 31.5151C298.995 30.8737 299.982 29.9772 300.755 28.8259C301.528 27.6746 302.03 26.3341 302.26 24.8044L302.704 25.7173H302.433C302.285 27.1153 301.832 28.39 301.076 29.5414C300.319 30.6763 299.307 31.5891 298.041 32.2799C296.775 32.9543 295.294 33.2915 293.6 33.2915ZM302.087 32.8227L302.211 26.3834L302.161 26.0133V15.7252L302.186 15.2565L302.087 8.42243V0.0340576H303V32.8227H302.087Z" fill="black"/>
<path d="M56.8519 32.2639L44.6355 1.72284H50.002L57.2882 20.2656C57.6373 21.1673 57.9427 21.9817 58.2045 22.7089C58.4953 23.4361 58.7426 24.1051 58.9462 24.7159C59.1498 25.2976 59.3388 25.8503 59.5134 26.3738C59.6879 26.8974 59.8624 27.421 60.0369 27.9445L58.9025 27.9881C59.1061 27.2901 59.3243 26.5629 59.557 25.8066C59.7897 25.0504 60.0515 24.2214 60.3423 23.3197C60.6623 22.418 61.0404 21.4 61.4767 20.2656L68.2394 1.72284H73.7368L61.4331 32.2639H56.8519Z" fill="black"/>
<path d="M90.1229 32.7002C87.9996 32.7002 86.0508 32.3221 84.2765 31.5658C82.5022 30.8096 80.9606 29.7333 79.6517 28.3372C78.3428 26.9119 77.3248 25.2394 76.5976 23.3197C75.8995 21.4 75.5505 19.2912 75.5505 16.9934C75.5505 14.8119 75.9286 12.7903 76.6849 10.9288C77.4702 9.03815 78.5464 7.38021 79.9135 5.95496C81.2806 4.52971 82.8658 3.42441 84.6692 2.63907C86.4725 1.85373 88.4213 1.46106 90.5156 1.46106C91.999 1.46106 93.4388 1.69375 94.835 2.15914C96.2602 2.59544 97.54 3.22081 98.6744 4.03523C99.8379 4.82058 100.783 5.72226 101.51 6.7403L98.369 10.0126C97.1183 8.73274 95.8385 7.77288 94.5295 7.13297C93.2206 6.49306 91.8827 6.17311 90.5156 6.17311C89.0903 6.17311 87.7523 6.44943 86.5016 7.00208C85.28 7.52564 84.2038 8.26735 83.273 9.22721C82.3713 10.1871 81.6587 11.336 81.1351 12.674C80.6116 13.9829 80.3498 15.4227 80.3498 16.9934C80.3498 18.6513 80.597 20.1638 81.0915 21.5309C81.615 22.8689 82.3422 24.0178 83.273 24.9777C84.2038 25.9375 85.3091 26.6792 86.5889 27.2028C87.8978 27.6973 89.3376 27.9445 90.9083 27.9445C91.8681 27.9445 92.8134 27.8136 93.7442 27.5518C94.675 27.2901 95.5476 26.9119 96.362 26.4175C97.1764 25.923 97.9182 25.3413 98.5872 24.6723L100.943 28.5117C100.274 29.297 99.3579 30.0097 98.1945 30.6496C97.0601 31.2895 95.7803 31.7985 94.355 32.1766C92.9589 32.5257 91.5482 32.7002 90.1229 32.7002Z" fill="black"/>
<path d="M107.344 32.2639V1.72284H126.585V6.26037H112.056V27.7264H126.585V32.2639H107.344ZM109.482 18.8695V14.3319H124.185V18.8695H109.482Z" fill="black"/>
</svg>
